G75*
%MOIN*%
%OFA0B0*%
%FSLAX24Y24*%
%IPPOS*%
%LPD*%
%AMOC8*
5,1,8,0,0,1.08239X$1,22.5*
%
%ADD10R,0.0870X0.0240*%
%ADD11R,0.0740X0.0740*%
%ADD12OC8,0.0740*%
%ADD13R,0.0630X0.0710*%
%ADD14R,0.0710X0.0630*%
%ADD15R,0.0138X0.0984*%
%ADD16R,0.0295X0.0984*%
%ADD17R,0.0787X0.0984*%
%ADD18R,0.0630X0.0709*%
%ADD19R,0.0531X0.0630*%
%ADD20R,0.1260X0.0276*%
%ADD21R,0.0394X0.0551*%
%ADD22C,0.0120*%
%ADD23C,0.0400*%
D10*
X014770Y006350D03*
X014770Y006850D03*
X014770Y007350D03*
X014770Y007850D03*
X017420Y007850D03*
X017420Y007350D03*
X017420Y006850D03*
X017420Y006350D03*
D11*
X020600Y008100D03*
D12*
X020600Y007100D03*
X020600Y006100D03*
X019600Y006100D03*
X019600Y007100D03*
X019600Y008100D03*
D13*
X016660Y009100D03*
X015540Y009100D03*
X013360Y006850D03*
X012240Y006850D03*
D14*
X013600Y008290D03*
X013600Y009410D03*
D15*
X016285Y004084D03*
X016600Y004084D03*
X016915Y004084D03*
D16*
X017309Y004084D03*
X015891Y004084D03*
D17*
X014828Y004084D03*
X014828Y001919D03*
X018372Y001919D03*
X018372Y004084D03*
D18*
X016651Y005600D03*
X015549Y005600D03*
D19*
X027696Y015960D03*
X028504Y015960D03*
X028504Y017240D03*
X027696Y017240D03*
D20*
X028100Y016600D03*
D21*
X011726Y008167D03*
X012474Y008167D03*
X012100Y009033D03*
D22*
X012120Y009020D01*
X013040Y009020D01*
X013160Y008900D01*
X014960Y008900D01*
X014960Y009460D01*
X015160Y009660D01*
X016640Y009660D01*
X016640Y009100D01*
X016660Y009100D01*
X016680Y009060D01*
X016680Y008580D01*
X016840Y008420D01*
X016800Y008380D01*
X016800Y005740D01*
X016680Y005620D01*
X016651Y005600D01*
X016640Y005580D01*
X015920Y004860D01*
X015920Y004100D01*
X015891Y004084D01*
X015560Y003380D02*
X015560Y005580D01*
X015549Y005600D01*
X015520Y005620D01*
X014800Y006340D01*
X014770Y006350D01*
X014770Y006850D02*
X014760Y006860D01*
X013360Y006860D01*
X013360Y006850D01*
X012240Y006860D02*
X012240Y006850D01*
X012240Y006860D02*
X012240Y007660D01*
X011760Y008140D01*
X011726Y008167D01*
X012474Y008167D02*
X012480Y008180D01*
X013600Y008180D01*
X013600Y008290D01*
X013600Y009410D02*
X013600Y017740D01*
X028840Y017740D01*
X028960Y017620D01*
X028960Y015460D01*
X028160Y015460D01*
X028040Y015580D01*
X028040Y015620D01*
X027720Y015940D01*
X027696Y015960D01*
X027680Y017220D02*
X027696Y017240D01*
X027680Y017220D02*
X020080Y009620D01*
X021400Y008300D01*
X021400Y005300D01*
X018440Y005300D01*
X017760Y004620D01*
X017760Y004580D01*
X017320Y004140D01*
X017309Y004084D01*
X017280Y004060D01*
X017200Y003980D01*
X017200Y003540D01*
X017040Y003380D01*
X015560Y003380D01*
X017420Y006350D02*
X017440Y006380D01*
X018400Y006380D01*
X018800Y006100D02*
X019360Y005540D01*
X021160Y005540D01*
X021160Y006540D01*
X020600Y007100D01*
X019600Y006100D02*
X019040Y006660D01*
X019040Y008580D01*
X020080Y009620D01*
X018160Y008100D02*
X017240Y008100D01*
X017200Y008060D01*
X017400Y007860D01*
X017420Y007850D01*
X017200Y008060D02*
X016840Y008420D01*
X016320Y007820D02*
X014840Y007820D01*
X014770Y007850D01*
X014800Y007860D01*
X014800Y008380D01*
X015520Y009100D01*
X015540Y009100D01*
X017440Y007380D02*
X017420Y007350D01*
X017440Y007380D02*
X017880Y007380D01*
X018000Y007500D01*
X018800Y007500D01*
X018800Y006100D01*
X018160Y006860D02*
X018160Y007100D01*
X018160Y006860D02*
X017440Y006860D01*
X017420Y006850D01*
D23*
X018160Y007100D03*
X018400Y006380D03*
X018160Y008100D03*
X016320Y007820D03*
M02*
