%
M48
M72
T01C0.0240
T02C0.0315
T03C0.0400
T04C0.0787
T05C0.1260
%
T01
X11150Y11750
X10650Y12250
X15850Y9850
X16450Y10550
X16650Y11450
X16750Y7850
X16750Y3750
T02
X13280Y1596
X12650Y1596
X12020Y1596
X12335Y2304
X12965Y2304
T03
X19650Y10650
X19650Y11650
X20650Y11650
X20650Y10650
X21650Y10650
X21650Y11650
T04
X14304Y1950
X10996Y1950
T05
X4650Y4650
X4650Y20650
X20650Y20650
X20650Y4650
M30
