G75*
%MOIN*%
%OFA0B0*%
%FSLAX24Y24*%
%IPPOS*%
%LPD*%
%AMOC8*
5,1,8,0,0,1.08239X$1,22.5*
%
%ADD10C,0.1340*%
%ADD11R,0.0320X0.0950*%
%ADD12R,0.0790X0.0710*%
%ADD13R,0.0710X0.0790*%
%ADD14C,0.0595*%
%ADD15C,0.1261*%
%ADD16R,0.0789X0.0710*%
%ADD17R,0.0611X0.0710*%
%ADD18R,0.1339X0.0354*%
%ADD19R,0.0984X0.0207*%
%ADD20R,0.0474X0.0631*%
%ADD21R,0.0340X0.0880*%
%ADD22R,0.0552X0.0297*%
%ADD23R,0.1891X0.0474*%
%ADD24R,0.1419X0.0710*%
%ADD25OC8,0.0820*%
%ADD26C,0.0480*%
D10*
X004650Y004650D03*
X004650Y020650D03*
X020650Y020650D03*
X020650Y004650D03*
D11*
X017900Y009670D03*
X017400Y009670D03*
X016900Y009670D03*
X016400Y009670D03*
X016400Y012320D03*
X016900Y012320D03*
X017400Y012320D03*
X017900Y012320D03*
D12*
X017150Y013640D03*
X017150Y014760D03*
X015150Y011710D03*
X015150Y010590D03*
X015150Y007210D03*
X015150Y006090D03*
D13*
X016090Y006150D03*
X016090Y007150D03*
X017210Y007150D03*
X017210Y006150D03*
X014210Y017400D03*
X013090Y017400D03*
D14*
X012965Y002304D03*
X012335Y002304D03*
X012020Y001596D03*
X012650Y001596D03*
X013280Y001596D03*
D15*
X014304Y001950D03*
X010996Y001950D03*
D16*
X014150Y004099D03*
X014150Y005201D03*
X018150Y005201D03*
X018150Y004099D03*
X014150Y010599D03*
X014150Y011701D03*
D17*
X013054Y012010D03*
X012246Y012010D03*
X012246Y013290D03*
X013054Y013290D03*
D18*
X012650Y012650D03*
D19*
X012650Y012655D03*
D20*
X014776Y015467D03*
X015524Y015467D03*
X015150Y016333D03*
D21*
X009400Y016130D03*
X008900Y016130D03*
X008400Y016130D03*
X007900Y016130D03*
X007400Y016130D03*
X006900Y016130D03*
X006400Y016130D03*
X005900Y016130D03*
X005900Y020130D03*
X006400Y020130D03*
X006900Y020130D03*
X007400Y020130D03*
X007900Y020130D03*
X008400Y020130D03*
X008900Y020130D03*
X009400Y020130D03*
D22*
X015638Y005024D03*
X015638Y004650D03*
X015638Y004276D03*
X016662Y004276D03*
X016662Y005024D03*
D23*
X012607Y005256D03*
X012607Y006044D03*
D24*
X010559Y006989D03*
X010559Y004311D03*
D25*
X019650Y010650D03*
X019650Y011650D03*
X020650Y011650D03*
X020650Y010650D03*
X021650Y010650D03*
X021650Y011650D03*
D26*
X016750Y007850D03*
X015850Y009850D03*
X016450Y010550D03*
X016650Y011450D03*
X011150Y011750D03*
X010650Y012250D03*
X016750Y003750D03*
M02*
