G75*
%MOIN*%
%OFA0B0*%
%FSLAX24Y24*%
%IPPOS*%
%LPD*%
%AMOC8*
5,1,8,0,0,1.08239X$1,22.5*
%
%ADD10C,0.0000*%
D10*
X001100Y000100D02*
X039100Y000100D01*
X039160Y000102D01*
X039221Y000107D01*
X039280Y000116D01*
X039339Y000129D01*
X039398Y000145D01*
X039455Y000165D01*
X039510Y000188D01*
X039565Y000215D01*
X039617Y000244D01*
X039668Y000277D01*
X039717Y000313D01*
X039763Y000351D01*
X039807Y000393D01*
X039849Y000437D01*
X039887Y000483D01*
X039923Y000532D01*
X039956Y000583D01*
X039985Y000635D01*
X040012Y000690D01*
X040035Y000745D01*
X040055Y000802D01*
X040071Y000861D01*
X040084Y000920D01*
X040093Y000979D01*
X040098Y001040D01*
X040100Y001100D01*
X040100Y015100D01*
X040098Y015160D01*
X040093Y015221D01*
X040084Y015280D01*
X040071Y015339D01*
X040055Y015398D01*
X040035Y015455D01*
X040012Y015510D01*
X039985Y015565D01*
X039956Y015617D01*
X039923Y015668D01*
X039887Y015717D01*
X039849Y015763D01*
X039807Y015807D01*
X039763Y015849D01*
X039717Y015887D01*
X039668Y015923D01*
X039617Y015956D01*
X039565Y015985D01*
X039510Y016012D01*
X039455Y016035D01*
X039398Y016055D01*
X039339Y016071D01*
X039280Y016084D01*
X039221Y016093D01*
X039160Y016098D01*
X039100Y016100D01*
X001100Y016100D01*
X001040Y016098D01*
X000979Y016093D01*
X000920Y016084D01*
X000861Y016071D01*
X000802Y016055D01*
X000745Y016035D01*
X000690Y016012D01*
X000635Y015985D01*
X000583Y015956D01*
X000532Y015923D01*
X000483Y015887D01*
X000437Y015849D01*
X000393Y015807D01*
X000351Y015763D01*
X000313Y015717D01*
X000277Y015668D01*
X000244Y015617D01*
X000215Y015565D01*
X000188Y015510D01*
X000165Y015455D01*
X000145Y015398D01*
X000129Y015339D01*
X000116Y015280D01*
X000107Y015221D01*
X000102Y015160D01*
X000100Y015100D01*
X000100Y001100D01*
X000102Y001040D01*
X000107Y000979D01*
X000116Y000920D01*
X000129Y000861D01*
X000145Y000802D01*
X000165Y000745D01*
X000188Y000690D01*
X000215Y000635D01*
X000244Y000583D01*
X000277Y000532D01*
X000313Y000483D01*
X000351Y000437D01*
X000393Y000393D01*
X000437Y000351D01*
X000483Y000313D01*
X000532Y000277D01*
X000583Y000244D01*
X000635Y000215D01*
X000690Y000188D01*
X000745Y000165D01*
X000802Y000145D01*
X000861Y000129D01*
X000920Y000116D01*
X000979Y000107D01*
X001040Y000102D01*
X001100Y000100D01*
X002470Y003100D02*
X002472Y003150D01*
X002478Y003200D01*
X002488Y003249D01*
X002502Y003297D01*
X002519Y003344D01*
X002540Y003389D01*
X002565Y003433D01*
X002593Y003474D01*
X002625Y003513D01*
X002659Y003550D01*
X002696Y003584D01*
X002736Y003614D01*
X002778Y003641D01*
X002822Y003665D01*
X002868Y003686D01*
X002915Y003702D01*
X002963Y003715D01*
X003013Y003724D01*
X003062Y003729D01*
X003113Y003730D01*
X003163Y003727D01*
X003212Y003720D01*
X003261Y003709D01*
X003309Y003694D01*
X003355Y003676D01*
X003400Y003654D01*
X003443Y003628D01*
X003484Y003599D01*
X003523Y003567D01*
X003559Y003532D01*
X003591Y003494D01*
X003621Y003454D01*
X003648Y003411D01*
X003671Y003367D01*
X003690Y003321D01*
X003706Y003273D01*
X003718Y003224D01*
X003726Y003175D01*
X003730Y003125D01*
X003730Y003075D01*
X003726Y003025D01*
X003718Y002976D01*
X003706Y002927D01*
X003690Y002879D01*
X003671Y002833D01*
X003648Y002789D01*
X003621Y002746D01*
X003591Y002706D01*
X003559Y002668D01*
X003523Y002633D01*
X003484Y002601D01*
X003443Y002572D01*
X003400Y002546D01*
X003355Y002524D01*
X003309Y002506D01*
X003261Y002491D01*
X003212Y002480D01*
X003163Y002473D01*
X003113Y002470D01*
X003062Y002471D01*
X003013Y002476D01*
X002963Y002485D01*
X002915Y002498D01*
X002868Y002514D01*
X002822Y002535D01*
X002778Y002559D01*
X002736Y002586D01*
X002696Y002616D01*
X002659Y002650D01*
X002625Y002687D01*
X002593Y002726D01*
X002565Y002767D01*
X002540Y002811D01*
X002519Y002856D01*
X002502Y002903D01*
X002488Y002951D01*
X002478Y003000D01*
X002472Y003050D01*
X002470Y003100D01*
X002470Y013100D02*
X002472Y013150D01*
X002478Y013200D01*
X002488Y013249D01*
X002502Y013297D01*
X002519Y013344D01*
X002540Y013389D01*
X002565Y013433D01*
X002593Y013474D01*
X002625Y013513D01*
X002659Y013550D01*
X002696Y013584D01*
X002736Y013614D01*
X002778Y013641D01*
X002822Y013665D01*
X002868Y013686D01*
X002915Y013702D01*
X002963Y013715D01*
X003013Y013724D01*
X003062Y013729D01*
X003113Y013730D01*
X003163Y013727D01*
X003212Y013720D01*
X003261Y013709D01*
X003309Y013694D01*
X003355Y013676D01*
X003400Y013654D01*
X003443Y013628D01*
X003484Y013599D01*
X003523Y013567D01*
X003559Y013532D01*
X003591Y013494D01*
X003621Y013454D01*
X003648Y013411D01*
X003671Y013367D01*
X003690Y013321D01*
X003706Y013273D01*
X003718Y013224D01*
X003726Y013175D01*
X003730Y013125D01*
X003730Y013075D01*
X003726Y013025D01*
X003718Y012976D01*
X003706Y012927D01*
X003690Y012879D01*
X003671Y012833D01*
X003648Y012789D01*
X003621Y012746D01*
X003591Y012706D01*
X003559Y012668D01*
X003523Y012633D01*
X003484Y012601D01*
X003443Y012572D01*
X003400Y012546D01*
X003355Y012524D01*
X003309Y012506D01*
X003261Y012491D01*
X003212Y012480D01*
X003163Y012473D01*
X003113Y012470D01*
X003062Y012471D01*
X003013Y012476D01*
X002963Y012485D01*
X002915Y012498D01*
X002868Y012514D01*
X002822Y012535D01*
X002778Y012559D01*
X002736Y012586D01*
X002696Y012616D01*
X002659Y012650D01*
X002625Y012687D01*
X002593Y012726D01*
X002565Y012767D01*
X002540Y012811D01*
X002519Y012856D01*
X002502Y012903D01*
X002488Y012951D01*
X002478Y013000D01*
X002472Y013050D01*
X002470Y013100D01*
X036470Y013100D02*
X036472Y013150D01*
X036478Y013200D01*
X036488Y013249D01*
X036502Y013297D01*
X036519Y013344D01*
X036540Y013389D01*
X036565Y013433D01*
X036593Y013474D01*
X036625Y013513D01*
X036659Y013550D01*
X036696Y013584D01*
X036736Y013614D01*
X036778Y013641D01*
X036822Y013665D01*
X036868Y013686D01*
X036915Y013702D01*
X036963Y013715D01*
X037013Y013724D01*
X037062Y013729D01*
X037113Y013730D01*
X037163Y013727D01*
X037212Y013720D01*
X037261Y013709D01*
X037309Y013694D01*
X037355Y013676D01*
X037400Y013654D01*
X037443Y013628D01*
X037484Y013599D01*
X037523Y013567D01*
X037559Y013532D01*
X037591Y013494D01*
X037621Y013454D01*
X037648Y013411D01*
X037671Y013367D01*
X037690Y013321D01*
X037706Y013273D01*
X037718Y013224D01*
X037726Y013175D01*
X037730Y013125D01*
X037730Y013075D01*
X037726Y013025D01*
X037718Y012976D01*
X037706Y012927D01*
X037690Y012879D01*
X037671Y012833D01*
X037648Y012789D01*
X037621Y012746D01*
X037591Y012706D01*
X037559Y012668D01*
X037523Y012633D01*
X037484Y012601D01*
X037443Y012572D01*
X037400Y012546D01*
X037355Y012524D01*
X037309Y012506D01*
X037261Y012491D01*
X037212Y012480D01*
X037163Y012473D01*
X037113Y012470D01*
X037062Y012471D01*
X037013Y012476D01*
X036963Y012485D01*
X036915Y012498D01*
X036868Y012514D01*
X036822Y012535D01*
X036778Y012559D01*
X036736Y012586D01*
X036696Y012616D01*
X036659Y012650D01*
X036625Y012687D01*
X036593Y012726D01*
X036565Y012767D01*
X036540Y012811D01*
X036519Y012856D01*
X036502Y012903D01*
X036488Y012951D01*
X036478Y013000D01*
X036472Y013050D01*
X036470Y013100D01*
X036470Y003100D02*
X036472Y003150D01*
X036478Y003200D01*
X036488Y003249D01*
X036502Y003297D01*
X036519Y003344D01*
X036540Y003389D01*
X036565Y003433D01*
X036593Y003474D01*
X036625Y003513D01*
X036659Y003550D01*
X036696Y003584D01*
X036736Y003614D01*
X036778Y003641D01*
X036822Y003665D01*
X036868Y003686D01*
X036915Y003702D01*
X036963Y003715D01*
X037013Y003724D01*
X037062Y003729D01*
X037113Y003730D01*
X037163Y003727D01*
X037212Y003720D01*
X037261Y003709D01*
X037309Y003694D01*
X037355Y003676D01*
X037400Y003654D01*
X037443Y003628D01*
X037484Y003599D01*
X037523Y003567D01*
X037559Y003532D01*
X037591Y003494D01*
X037621Y003454D01*
X037648Y003411D01*
X037671Y003367D01*
X037690Y003321D01*
X037706Y003273D01*
X037718Y003224D01*
X037726Y003175D01*
X037730Y003125D01*
X037730Y003075D01*
X037726Y003025D01*
X037718Y002976D01*
X037706Y002927D01*
X037690Y002879D01*
X037671Y002833D01*
X037648Y002789D01*
X037621Y002746D01*
X037591Y002706D01*
X037559Y002668D01*
X037523Y002633D01*
X037484Y002601D01*
X037443Y002572D01*
X037400Y002546D01*
X037355Y002524D01*
X037309Y002506D01*
X037261Y002491D01*
X037212Y002480D01*
X037163Y002473D01*
X037113Y002470D01*
X037062Y002471D01*
X037013Y002476D01*
X036963Y002485D01*
X036915Y002498D01*
X036868Y002514D01*
X036822Y002535D01*
X036778Y002559D01*
X036736Y002586D01*
X036696Y002616D01*
X036659Y002650D01*
X036625Y002687D01*
X036593Y002726D01*
X036565Y002767D01*
X036540Y002811D01*
X036519Y002856D01*
X036502Y002903D01*
X036488Y002951D01*
X036478Y003000D01*
X036472Y003050D01*
X036470Y003100D01*
M02*
