G75*
%MOIN*%
%OFA0B0*%
%FSLAX24Y24*%
%IPPOS*%
%LPD*%
%AMOC8*
5,1,8,0,0,1.08239X$1,22.5*
%
%ADD10C,0.1340*%
%ADD11R,0.0950X0.0320*%
%ADD12R,0.0820X0.0820*%
%ADD13OC8,0.0820*%
%ADD14R,0.0710X0.0790*%
%ADD15R,0.0790X0.0710*%
%ADD16R,0.0218X0.1064*%
%ADD17R,0.0375X0.1064*%
%ADD18R,0.0867X0.1064*%
%ADD19R,0.0710X0.0789*%
%ADD20R,0.0611X0.0710*%
%ADD21R,0.1339X0.0354*%
%ADD22R,0.0984X0.0207*%
%ADD23R,0.0474X0.0631*%
%ADD24C,0.0480*%
D10*
X003600Y016600D03*
X016600Y029600D03*
X025600Y025600D03*
X025600Y007600D03*
D11*
X017420Y007350D03*
X017420Y007850D03*
X017420Y006850D03*
X017420Y006350D03*
X014770Y006350D03*
X014770Y006850D03*
X014770Y007350D03*
X014770Y007850D03*
D12*
X020600Y008100D03*
D13*
X020600Y007100D03*
X020600Y006100D03*
X019600Y006100D03*
X019600Y007100D03*
X019600Y008100D03*
D14*
X016660Y009100D03*
X015540Y009100D03*
X013360Y006850D03*
X012240Y006850D03*
D15*
X013600Y008290D03*
X013600Y009410D03*
D16*
X016285Y004084D03*
X016600Y004084D03*
X016915Y004084D03*
D17*
X017309Y004084D03*
X015891Y004084D03*
D18*
X014828Y004084D03*
X014828Y001919D03*
X018372Y001919D03*
X018372Y004084D03*
D19*
X016651Y005600D03*
X015549Y005600D03*
D20*
X027696Y015960D03*
X028504Y015960D03*
X028504Y017240D03*
X027696Y017240D03*
D21*
X028100Y016600D03*
D22*
X028100Y016595D03*
D23*
X011726Y008167D03*
X012474Y008167D03*
X012100Y009033D03*
D24*
X016320Y007820D03*
X018160Y008100D03*
X018160Y007100D03*
X018400Y006380D03*
M02*
