G75*
%MOIN*%
%OFA0B0*%
%FSLAX24Y24*%
%IPPOS*%
%LPD*%
%AMOC8*
5,1,8,0,0,1.08239X$1,22.5*
%
%ADD10C,0.0060*%
%ADD11C,0.0080*%
%ADD12C,0.0010*%
%ADD13C,0.0040*%
%ADD14C,0.0050*%
%ADD15C,0.0020*%
%ADD16R,0.0200X0.0050*%
%ADD17R,0.0079X0.0079*%
%ADD18R,0.0059X0.0098*%
D10*
X005692Y009966D02*
X005905Y010180D01*
X005799Y010180D01*
X005799Y010287D01*
X005905Y010287D01*
X005905Y010180D01*
X005474Y010287D02*
X005474Y010714D01*
X005047Y010287D01*
X005154Y010180D01*
X005368Y010180D01*
X005474Y010287D01*
X005047Y010287D02*
X005047Y010714D01*
X005154Y010821D01*
X005368Y010821D01*
X005474Y010714D01*
X005477Y011230D02*
X005584Y011230D01*
X005584Y011337D01*
X005477Y011337D01*
X005477Y011230D01*
X005259Y011230D02*
X005259Y011657D01*
X005046Y011871D01*
X004832Y011657D01*
X004832Y011230D01*
X004832Y011550D02*
X005259Y011550D01*
X005045Y012066D02*
X005152Y012173D01*
X005152Y012707D01*
X004832Y012707D01*
X004725Y012600D01*
X004725Y012387D01*
X004832Y012280D01*
X005152Y012280D01*
X005370Y012280D02*
X005370Y012921D01*
X005476Y012707D02*
X005690Y012707D01*
X005797Y012600D01*
X005797Y012280D01*
X005370Y012600D02*
X005476Y012707D01*
X006014Y012707D02*
X006228Y012707D01*
X006121Y012814D02*
X006121Y012387D01*
X006228Y012280D01*
X006444Y011871D02*
X006657Y011657D01*
X006871Y011871D01*
X006871Y011230D01*
X007088Y011337D02*
X007088Y011550D01*
X007195Y011657D01*
X007409Y011657D01*
X007515Y011550D01*
X007515Y011444D01*
X007088Y011444D01*
X007088Y011337D02*
X007195Y011230D01*
X007409Y011230D01*
X007733Y011230D02*
X007946Y011230D01*
X007840Y011230D02*
X007840Y011871D01*
X007733Y011871D01*
X008163Y011871D02*
X008269Y011871D01*
X008269Y011230D01*
X008163Y011230D02*
X008376Y011230D01*
X008592Y011230D02*
X008806Y011230D01*
X008699Y011230D02*
X008699Y011657D01*
X008592Y011657D01*
X008699Y011871D02*
X008699Y011977D01*
X009022Y011550D02*
X009129Y011657D01*
X009449Y011657D01*
X009342Y011444D02*
X009129Y011444D01*
X009022Y011550D01*
X009022Y011230D02*
X009342Y011230D01*
X009449Y011337D01*
X009342Y011444D01*
X009020Y010821D02*
X008700Y010500D01*
X009127Y010500D01*
X009020Y010180D02*
X009020Y010821D01*
X008482Y010180D02*
X008055Y010180D01*
X008269Y010180D02*
X008269Y010821D01*
X008055Y010607D01*
X007838Y010714D02*
X007838Y010287D01*
X007731Y010180D01*
X007517Y010180D01*
X007411Y010287D01*
X007838Y010714D01*
X007731Y010821D01*
X007517Y010821D01*
X007411Y010714D01*
X007411Y010287D01*
X007193Y010180D02*
X006766Y010180D01*
X007193Y010607D01*
X007193Y010714D01*
X007086Y010821D01*
X006873Y010821D01*
X006766Y010714D01*
X006444Y011230D02*
X006444Y011871D01*
X005045Y012066D02*
X004939Y012066D01*
X004509Y012280D02*
X004295Y012280D01*
X004402Y012280D02*
X004402Y012707D01*
X004295Y012707D01*
X004402Y012921D02*
X004402Y013027D01*
X003651Y012921D02*
X003651Y012280D01*
X004078Y012280D01*
X003970Y011871D02*
X003970Y011230D01*
X003650Y011230D01*
X003543Y011337D01*
X003543Y011550D01*
X003650Y011657D01*
X003970Y011657D01*
X003327Y011230D02*
X003114Y011230D01*
X003220Y011230D02*
X003220Y011657D01*
X003114Y011657D01*
X002896Y011657D02*
X002683Y011230D01*
X002469Y011657D01*
X002252Y011550D02*
X002252Y011230D01*
X001931Y011230D01*
X001825Y011337D01*
X001931Y011444D01*
X002252Y011444D01*
X002252Y011550D02*
X002145Y011657D01*
X001931Y011657D01*
X001607Y011764D02*
X001500Y011871D01*
X001180Y011871D01*
X001180Y011230D01*
X001500Y011230D01*
X001607Y011337D01*
X001607Y011764D01*
X001394Y012280D02*
X001500Y012387D01*
X001500Y012921D01*
X001394Y012921D02*
X001607Y012921D01*
X001931Y012707D02*
X002145Y012707D01*
X002252Y012600D01*
X002252Y012280D01*
X001931Y012280D01*
X001825Y012387D01*
X001931Y012494D01*
X002252Y012494D01*
X002469Y012494D02*
X002683Y012707D01*
X002789Y012707D01*
X002469Y012707D02*
X002469Y012280D01*
X003220Y011977D02*
X003220Y011871D01*
X003220Y010607D02*
X003434Y010607D01*
X003541Y010500D01*
X003541Y010394D01*
X003114Y010394D01*
X003114Y010500D02*
X003220Y010607D01*
X003114Y010500D02*
X003114Y010287D01*
X003220Y010180D01*
X003434Y010180D01*
X002896Y010180D02*
X002896Y010500D01*
X002789Y010607D01*
X002469Y010607D01*
X002469Y010180D01*
X002252Y010180D02*
X002252Y010607D01*
X002252Y010180D02*
X001931Y010180D01*
X001825Y010287D01*
X001825Y010607D01*
X001607Y010821D02*
X001394Y010821D01*
X001500Y010821D02*
X001500Y010287D01*
X001394Y010180D01*
X001287Y010180D01*
X001180Y010287D01*
X001287Y012280D02*
X001180Y012387D01*
X001287Y012280D02*
X001394Y012280D01*
X004403Y010714D02*
X004510Y010821D01*
X004723Y010821D01*
X004830Y010714D01*
X004830Y010607D01*
X004723Y010500D01*
X004830Y010394D01*
X004830Y010287D01*
X004723Y010180D01*
X004510Y010180D01*
X004403Y010287D01*
X004616Y010500D02*
X004723Y010500D01*
X005740Y016680D02*
X009560Y016680D01*
X009583Y016682D01*
X009606Y016687D01*
X009628Y016696D01*
X009648Y016709D01*
X009666Y016724D01*
X009681Y016742D01*
X009694Y016762D01*
X009703Y016784D01*
X009708Y016807D01*
X009710Y016830D01*
X009710Y019470D01*
X009708Y019493D01*
X009703Y019516D01*
X009694Y019538D01*
X009681Y019558D01*
X009666Y019576D01*
X009648Y019591D01*
X009628Y019604D01*
X009606Y019613D01*
X009583Y019618D01*
X009560Y019620D01*
X005740Y019620D01*
X005717Y019618D01*
X005694Y019613D01*
X005672Y019604D01*
X005652Y019591D01*
X005634Y019576D01*
X005619Y019558D01*
X005606Y019538D01*
X005597Y019516D01*
X005592Y019493D01*
X005590Y019470D01*
X005590Y016830D01*
X005592Y016807D01*
X005597Y016784D01*
X005606Y016762D01*
X005619Y016742D01*
X005634Y016724D01*
X005652Y016709D01*
X005672Y016696D01*
X005694Y016687D01*
X005717Y016682D01*
X005740Y016680D01*
X009710Y017650D02*
X009666Y017652D01*
X009623Y017658D01*
X009581Y017667D01*
X009539Y017680D01*
X009499Y017697D01*
X009460Y017717D01*
X009423Y017740D01*
X009389Y017767D01*
X009356Y017796D01*
X009327Y017829D01*
X009300Y017863D01*
X009277Y017900D01*
X009257Y017939D01*
X009240Y017979D01*
X009227Y018021D01*
X009218Y018063D01*
X009212Y018106D01*
X009210Y018150D01*
X009212Y018194D01*
X009218Y018237D01*
X009227Y018279D01*
X009240Y018321D01*
X009257Y018361D01*
X009277Y018400D01*
X009300Y018437D01*
X009327Y018471D01*
X009356Y018504D01*
X009389Y018533D01*
X009423Y018560D01*
X009460Y018583D01*
X009499Y018603D01*
X009539Y018620D01*
X009581Y018633D01*
X009623Y018642D01*
X009666Y018648D01*
X009710Y018650D01*
X016220Y012000D02*
X016220Y009990D01*
X018080Y009990D02*
X018080Y012000D01*
D11*
X009969Y006437D02*
X009969Y004863D01*
X011544Y004075D02*
X012922Y004075D01*
X012922Y004390D01*
X011937Y004390D01*
X011937Y004863D01*
X011937Y006437D02*
X011937Y006910D01*
X012922Y006910D01*
X012922Y007225D01*
X011544Y007225D01*
X015981Y005210D02*
X016319Y005210D01*
X016469Y004756D02*
X016469Y004544D01*
X016319Y004090D02*
X015981Y004090D01*
X019400Y010018D02*
X019900Y010018D01*
X019900Y010150D02*
X019400Y010150D01*
X019150Y010400D01*
X019150Y011900D01*
X019400Y012150D01*
X019900Y012150D01*
X020150Y011900D01*
X020150Y010400D01*
X020400Y010150D01*
X020900Y010150D01*
X021150Y010400D01*
X021150Y011900D01*
X021400Y012150D01*
X021900Y012150D01*
X022150Y011900D01*
X022150Y010400D01*
X021900Y010150D01*
X021400Y010150D01*
X021150Y010400D01*
X020150Y010400D02*
X019900Y010150D01*
X020150Y011900D02*
X020400Y012150D01*
X020900Y012150D01*
X021150Y011900D01*
X016383Y010310D02*
X016385Y010325D01*
X016391Y010338D01*
X016400Y010350D01*
X016411Y010359D01*
X016425Y010365D01*
X016440Y010367D01*
X016455Y010365D01*
X016468Y010359D01*
X016480Y010350D01*
X016489Y010339D01*
X016495Y010325D01*
X016497Y010310D01*
X016495Y010295D01*
X016489Y010282D01*
X016480Y010270D01*
X016469Y010261D01*
X016455Y010255D01*
X016440Y010253D01*
X016425Y010255D01*
X016412Y010261D01*
X016400Y010270D01*
X016391Y010281D01*
X016385Y010295D01*
X016383Y010310D01*
D12*
X016655Y010605D02*
X016755Y010605D01*
X016705Y010605D02*
X016705Y010455D01*
X016802Y010455D02*
X016852Y010455D01*
X016827Y010455D02*
X016827Y010555D01*
X016802Y010555D01*
X016827Y010605D02*
X016827Y010630D01*
X016802Y010705D02*
X016902Y010705D01*
X016852Y010705D02*
X016852Y010855D01*
X016802Y010805D01*
X016755Y010855D02*
X016755Y010730D01*
X016730Y010705D01*
X016680Y010705D01*
X016655Y010730D01*
X016655Y010855D01*
X016901Y010555D02*
X016976Y010555D01*
X017001Y010530D01*
X017001Y010455D01*
X017048Y010480D02*
X017073Y010455D01*
X017148Y010455D01*
X017148Y010430D02*
X017123Y010405D01*
X017098Y010405D01*
X017148Y010430D02*
X017148Y010555D01*
X017195Y010555D02*
X017195Y010580D01*
X017220Y010605D01*
X017270Y010605D01*
X017295Y010580D01*
X017295Y010555D01*
X017270Y010530D01*
X017220Y010530D01*
X017195Y010555D01*
X017220Y010530D02*
X017195Y010505D01*
X017195Y010480D01*
X017220Y010455D01*
X017270Y010455D01*
X017295Y010480D01*
X017295Y010505D01*
X017270Y010530D01*
X017343Y010530D02*
X017393Y010555D01*
X017418Y010555D01*
X017443Y010530D01*
X017443Y010480D01*
X017418Y010455D01*
X017368Y010455D01*
X017343Y010480D01*
X017343Y010530D02*
X017343Y010605D01*
X017443Y010605D01*
X017490Y010530D02*
X017590Y010530D01*
X017637Y010580D02*
X017662Y010605D01*
X017712Y010605D01*
X017737Y010580D01*
X017737Y010555D01*
X017637Y010455D01*
X017737Y010455D01*
X017784Y010480D02*
X017885Y010580D01*
X017885Y010480D01*
X017860Y010455D01*
X017810Y010455D01*
X017784Y010480D01*
X017784Y010580D01*
X017810Y010605D01*
X017860Y010605D01*
X017885Y010580D01*
X017932Y010530D02*
X018032Y010530D01*
X018079Y010555D02*
X018104Y010530D01*
X018154Y010530D01*
X018179Y010505D01*
X018179Y010480D01*
X018154Y010455D01*
X018104Y010455D01*
X018079Y010480D01*
X018079Y010555D02*
X018079Y010580D01*
X018104Y010605D01*
X018154Y010605D01*
X018179Y010580D01*
X018226Y010605D02*
X018277Y010555D01*
X018327Y010605D01*
X018327Y010455D01*
X018424Y010455D02*
X018424Y010605D01*
X018374Y010605D02*
X018474Y010605D01*
X018226Y010605D02*
X018226Y010455D01*
X017048Y010480D02*
X017048Y010555D01*
X016901Y010555D02*
X016901Y010455D01*
X017030Y004958D02*
X017005Y004933D01*
X017005Y004883D01*
X017030Y004858D01*
X017005Y004810D02*
X017130Y004810D01*
X017155Y004785D01*
X017155Y004735D01*
X017130Y004710D01*
X017005Y004710D01*
X017155Y004858D02*
X017055Y004958D01*
X017030Y004958D01*
X017155Y004958D02*
X017155Y004858D01*
X016230Y004883D02*
X016230Y004983D01*
X016230Y004933D02*
X016080Y004933D01*
X016130Y004883D01*
X016130Y004835D02*
X016155Y004810D01*
X016180Y004835D01*
X016205Y004835D01*
X016230Y004810D01*
X016230Y004760D01*
X016205Y004735D01*
X016205Y004688D02*
X016230Y004663D01*
X016230Y004613D01*
X016205Y004588D01*
X016180Y004588D01*
X016155Y004613D01*
X016155Y004663D01*
X016180Y004688D01*
X016205Y004688D01*
X016155Y004663D02*
X016130Y004688D01*
X016105Y004688D01*
X016080Y004663D01*
X016080Y004613D01*
X016105Y004588D01*
X016130Y004588D01*
X016155Y004613D01*
X016180Y004541D02*
X016205Y004541D01*
X016230Y004516D01*
X016230Y004466D01*
X016205Y004441D01*
X016155Y004491D02*
X016155Y004516D01*
X016180Y004541D01*
X016155Y004516D02*
X016130Y004541D01*
X016105Y004541D01*
X016080Y004516D01*
X016080Y004466D01*
X016105Y004441D01*
X016105Y004393D02*
X016205Y004293D01*
X016230Y004293D01*
X016180Y004221D02*
X016180Y004146D01*
X016230Y004146D02*
X016080Y004146D01*
X016080Y004221D01*
X016105Y004246D01*
X016155Y004246D01*
X016180Y004221D01*
X016080Y004293D02*
X016080Y004393D01*
X016105Y004393D01*
X016105Y004099D02*
X016080Y004074D01*
X016080Y004024D01*
X016105Y003999D01*
X016205Y003999D01*
X016230Y004024D01*
X016230Y004074D01*
X016205Y004099D01*
X016230Y003951D02*
X016080Y003951D01*
X016130Y003901D01*
X016080Y003851D01*
X016230Y003851D01*
X016105Y004735D02*
X016080Y004760D01*
X016080Y004810D01*
X016105Y004835D01*
X016130Y004835D01*
X016155Y004810D02*
X016155Y004785D01*
X010645Y005180D02*
X010645Y005205D01*
X010620Y005230D01*
X010495Y005230D01*
X010495Y005205D02*
X010495Y005255D01*
X010520Y005302D02*
X010495Y005327D01*
X010495Y005377D01*
X010520Y005402D01*
X010545Y005402D01*
X010645Y005302D01*
X010645Y005402D01*
X010645Y005180D02*
X010620Y005155D01*
D13*
X013220Y005381D02*
X013220Y005688D01*
X013450Y005535D02*
X013450Y005381D01*
X013373Y005228D02*
X013680Y005228D01*
X013680Y004998D01*
X013603Y004921D01*
X013373Y004921D01*
X013296Y004768D02*
X013603Y004461D01*
X013680Y004461D01*
X013680Y004307D02*
X013680Y004230D01*
X013603Y004230D01*
X013603Y004307D01*
X013680Y004307D01*
X013450Y004077D02*
X013450Y003770D01*
X013220Y004000D01*
X013680Y004000D01*
X013870Y003561D02*
X014100Y003330D01*
X014100Y003637D01*
X014330Y003561D02*
X013870Y003561D01*
X013946Y003177D02*
X013870Y003100D01*
X013870Y002947D01*
X013946Y002870D01*
X014253Y002870D01*
X014330Y002947D01*
X014330Y003100D01*
X014253Y003177D01*
X013220Y004461D02*
X013220Y004768D01*
X013296Y004768D01*
X013220Y005381D02*
X013680Y005381D01*
X014400Y006120D02*
X014400Y006427D01*
X014553Y006580D02*
X014630Y006580D01*
X014553Y006580D02*
X014246Y006887D01*
X014170Y006887D01*
X014170Y006580D01*
X014170Y006350D02*
X014400Y006120D01*
X014630Y006350D02*
X014170Y006350D01*
X014246Y007041D02*
X014170Y007118D01*
X014170Y007271D01*
X014246Y007348D01*
X014553Y007041D01*
X014630Y007118D01*
X014630Y007271D01*
X014553Y007348D01*
X014246Y007348D01*
X014246Y007041D02*
X014553Y007041D01*
X014870Y007670D02*
X014870Y007900D01*
X014946Y007977D01*
X015100Y007977D01*
X015177Y007900D01*
X015177Y007670D01*
X015330Y007670D02*
X014870Y007670D01*
X015177Y007823D02*
X015330Y007977D01*
X015253Y008130D02*
X015330Y008207D01*
X015330Y008361D01*
X015253Y008437D01*
X014946Y008437D01*
X014870Y008361D01*
X014870Y008207D01*
X014946Y008130D01*
X015023Y008130D01*
X015100Y008207D01*
X015100Y008437D01*
X015728Y008080D02*
X015728Y007620D01*
X016035Y007620D01*
X016189Y007620D02*
X016496Y007620D01*
X016649Y007620D02*
X016879Y007620D01*
X016956Y007697D01*
X016956Y008004D01*
X016879Y008080D01*
X016649Y008080D01*
X016649Y007620D01*
X016342Y007850D02*
X016189Y007850D01*
X016189Y008080D02*
X016189Y007620D01*
X016189Y008080D02*
X016496Y008080D01*
X017110Y007927D02*
X017263Y008080D01*
X017263Y007620D01*
X017110Y007620D02*
X017417Y007620D01*
X016867Y006953D02*
X016844Y006930D01*
X016818Y006910D01*
X016790Y006893D01*
X016761Y006879D01*
X016730Y006868D01*
X016699Y006861D01*
X016666Y006857D01*
X016634Y006857D01*
X016601Y006861D01*
X016570Y006868D01*
X016539Y006879D01*
X016510Y006893D01*
X016482Y006910D01*
X016456Y006930D01*
X016433Y006953D01*
X016433Y007347D02*
X016456Y007370D01*
X016482Y007390D01*
X016510Y007407D01*
X016539Y007421D01*
X016570Y007432D01*
X016601Y007439D01*
X016634Y007443D01*
X016666Y007443D01*
X016699Y007439D01*
X016730Y007432D01*
X016761Y007421D01*
X016790Y007407D01*
X016818Y007390D01*
X016844Y007370D01*
X016867Y007347D01*
X017620Y006430D02*
X017850Y006430D01*
X017927Y006354D01*
X017927Y006200D01*
X017850Y006123D01*
X017620Y006123D01*
X017620Y005970D02*
X017620Y006430D01*
X017773Y006123D02*
X017927Y005970D01*
X018080Y005970D02*
X018080Y006047D01*
X018387Y006354D01*
X018387Y006430D01*
X018080Y006430D01*
X018670Y005588D02*
X018670Y005281D01*
X019130Y005281D01*
X019130Y005128D02*
X018823Y005128D01*
X018900Y005281D02*
X018900Y005435D01*
X019130Y005128D02*
X019130Y004898D01*
X019053Y004821D01*
X018823Y004821D01*
X018746Y004668D02*
X018670Y004668D01*
X018670Y004361D01*
X018746Y004668D02*
X019053Y004361D01*
X019130Y004361D01*
X019130Y004207D02*
X019130Y004130D01*
X019053Y004130D01*
X019053Y004207D01*
X019130Y004207D01*
X019130Y003900D02*
X018670Y003900D01*
X018900Y003670D01*
X018900Y003977D01*
X018380Y003461D02*
X018380Y003307D01*
X018303Y003230D01*
X018303Y003077D02*
X018380Y003000D01*
X018380Y002847D01*
X018303Y002770D01*
X017996Y002770D01*
X017920Y002847D01*
X017920Y003000D01*
X017996Y003077D01*
X017996Y003230D02*
X017920Y003307D01*
X017920Y003461D01*
X017996Y003537D01*
X018073Y003537D01*
X018150Y003461D01*
X018227Y003537D01*
X018303Y003537D01*
X018380Y003461D01*
X018150Y003461D02*
X018150Y003384D01*
X016987Y005270D02*
X016757Y005500D01*
X016680Y005423D02*
X016987Y005730D01*
X016680Y005730D02*
X016680Y005270D01*
X016527Y005270D02*
X016220Y005270D01*
X016527Y005577D01*
X016527Y005654D01*
X016450Y005730D01*
X016297Y005730D01*
X016220Y005654D01*
X014303Y009349D02*
X013996Y009349D01*
X013920Y009426D01*
X013920Y009579D01*
X013996Y009656D01*
X014073Y009810D02*
X013920Y009963D01*
X014380Y009963D01*
X014380Y009810D02*
X014380Y010117D01*
X014303Y009656D02*
X014380Y009579D01*
X014380Y009426D01*
X014303Y009349D01*
X014870Y009370D02*
X014870Y009600D01*
X014946Y009677D01*
X015100Y009677D01*
X015177Y009600D01*
X015177Y009370D01*
X015330Y009370D02*
X014870Y009370D01*
X015177Y009523D02*
X015330Y009677D01*
X015330Y009830D02*
X015330Y010137D01*
X015330Y009984D02*
X014870Y009984D01*
X015023Y009830D01*
X015773Y010470D02*
X015620Y010623D01*
X016080Y010623D01*
X016080Y010470D02*
X016080Y010777D01*
X016003Y010930D02*
X015696Y010930D01*
X015620Y011007D01*
X015620Y011161D01*
X015696Y011237D01*
X016003Y010930D01*
X016080Y011007D01*
X016080Y011161D01*
X016003Y011237D01*
X015696Y011237D01*
X015620Y011391D02*
X016080Y011391D01*
X015927Y011391D02*
X015620Y011698D01*
X015850Y011468D02*
X016080Y011698D01*
X016170Y013720D02*
X016170Y013950D01*
X016246Y014027D01*
X016400Y014027D01*
X016477Y013950D01*
X016477Y013720D01*
X016630Y013720D02*
X016170Y013720D01*
X016477Y013873D02*
X016630Y014027D01*
X016553Y014180D02*
X016630Y014257D01*
X016630Y014411D01*
X016553Y014487D01*
X016477Y014487D01*
X016400Y014411D01*
X016400Y014334D01*
X016400Y014411D02*
X016323Y014487D01*
X016246Y014487D01*
X016170Y014411D01*
X016170Y014257D01*
X016246Y014180D01*
X017670Y014180D02*
X018130Y014180D01*
X018130Y014027D02*
X018130Y013720D01*
X018130Y013873D02*
X017670Y013873D01*
X017823Y013720D01*
X017977Y014180D02*
X017670Y014487D01*
X017900Y014257D02*
X018130Y014487D01*
X016687Y016170D02*
X016380Y016170D01*
X016534Y016170D02*
X016534Y016630D01*
X016380Y016477D01*
X016227Y016630D02*
X015920Y016630D01*
X016073Y016630D02*
X016073Y016170D01*
X013937Y016497D02*
X013861Y016420D01*
X013707Y016420D01*
X013630Y016497D01*
X013937Y016804D01*
X013937Y016497D01*
X013937Y016804D02*
X013861Y016880D01*
X013707Y016880D01*
X013630Y016804D01*
X013630Y016497D01*
X013477Y016420D02*
X013170Y016420D01*
X013323Y016420D02*
X013323Y016880D01*
X013170Y016727D01*
X013170Y017920D02*
X013170Y018380D01*
X013400Y018380D01*
X013477Y018304D01*
X013477Y018150D01*
X013400Y018073D01*
X013170Y018073D01*
X013323Y018073D02*
X013477Y017920D01*
X013630Y017920D02*
X013937Y018227D01*
X013937Y018304D01*
X013861Y018380D01*
X013707Y018380D01*
X013630Y018304D01*
X013630Y017920D02*
X013937Y017920D01*
X011749Y014972D02*
X011825Y014895D01*
X011825Y014665D01*
X011365Y014665D01*
X011365Y014895D01*
X011442Y014972D01*
X011519Y014972D01*
X011595Y014895D01*
X011595Y014665D01*
X011595Y014511D02*
X011595Y014204D01*
X011519Y014204D02*
X011365Y014358D01*
X011519Y014511D01*
X011825Y014511D01*
X011825Y014204D02*
X011519Y014204D01*
X011365Y014051D02*
X011365Y013744D01*
X011825Y013744D01*
X011825Y013591D02*
X011825Y013284D01*
X011365Y013284D01*
X011365Y013591D01*
X011595Y013744D02*
X011595Y013897D01*
X011595Y013437D02*
X011595Y013284D01*
X011595Y013130D02*
X011595Y012823D01*
X011825Y012670D02*
X011825Y012363D01*
X011365Y012363D01*
X011365Y012209D02*
X011825Y012209D01*
X011825Y011902D02*
X011365Y011902D01*
X011519Y012056D01*
X011365Y012209D01*
X013220Y011367D02*
X013220Y011060D01*
X013680Y011060D01*
X013680Y010906D02*
X013373Y010906D01*
X013450Y011060D02*
X013450Y011213D01*
X013680Y010906D02*
X013680Y010676D01*
X013603Y010599D01*
X013373Y010599D01*
X013296Y010446D02*
X013603Y010139D01*
X013680Y010216D01*
X013680Y010369D01*
X013603Y010446D01*
X013296Y010446D01*
X013220Y010369D01*
X013220Y010216D01*
X013296Y010139D01*
X013603Y010139D01*
X013603Y009985D02*
X013680Y009985D01*
X013680Y009909D01*
X013603Y009909D01*
X013603Y009985D01*
X013680Y009755D02*
X013680Y009448D01*
X013680Y009602D02*
X013220Y009602D01*
X013373Y009448D01*
X013424Y012702D02*
X013885Y012702D01*
X013885Y013009D01*
X013885Y013163D02*
X013424Y013163D01*
X013424Y013470D01*
X013424Y013623D02*
X013424Y013853D01*
X013501Y013930D01*
X013808Y013930D01*
X013885Y013853D01*
X013885Y013623D01*
X013424Y013623D01*
X013654Y013316D02*
X013654Y013163D01*
X013885Y013163D02*
X013885Y013470D01*
X013885Y014084D02*
X013578Y014391D01*
X013501Y014391D01*
X013424Y014314D01*
X013424Y014160D01*
X013501Y014084D01*
X013885Y014084D02*
X013885Y014391D01*
X011749Y014972D02*
X011672Y014972D01*
X011595Y014895D01*
X022420Y014848D02*
X022496Y014695D01*
X022650Y014541D01*
X022650Y014771D01*
X022727Y014848D01*
X022803Y014848D01*
X022880Y014771D01*
X022880Y014618D01*
X022803Y014541D01*
X022650Y014541D01*
X022957Y014388D02*
X022957Y014081D01*
X022803Y013927D02*
X022650Y013927D01*
X022650Y013774D01*
X022803Y013927D02*
X022880Y013851D01*
X022880Y013697D01*
X022803Y013620D01*
X022496Y013620D01*
X022420Y013697D01*
X022420Y013851D01*
X022496Y013927D01*
X022496Y013467D02*
X022650Y013467D01*
X022727Y013390D01*
X022727Y013160D01*
X022880Y013160D02*
X022420Y013160D01*
X022420Y013390D01*
X022496Y013467D01*
X022727Y013314D02*
X022880Y013467D01*
X022650Y013007D02*
X022496Y013007D01*
X022420Y012930D01*
X022420Y012700D01*
X022880Y012700D01*
X022727Y012700D02*
X022727Y012930D01*
X022650Y013007D01*
X022957Y012546D02*
X022957Y012239D01*
X022880Y012086D02*
X022880Y011932D01*
X022880Y012009D02*
X022420Y012009D01*
X022420Y011932D02*
X022420Y012086D01*
X022496Y011779D02*
X022650Y011779D01*
X022727Y011702D01*
X022727Y011472D01*
X022880Y011472D02*
X022420Y011472D01*
X022420Y011702D01*
X022496Y011779D01*
X022496Y011318D02*
X022420Y011242D01*
X022420Y011088D01*
X022496Y011012D01*
X022573Y011012D01*
X022650Y011088D01*
X022650Y011242D01*
X022727Y011318D01*
X022803Y011318D01*
X022880Y011242D01*
X022880Y011088D01*
X022803Y011012D01*
X022957Y010858D02*
X022957Y010551D01*
X022880Y010398D02*
X022727Y010244D01*
X022727Y010321D02*
X022727Y010091D01*
X022880Y010091D02*
X022420Y010091D01*
X022420Y010321D01*
X022496Y010398D01*
X022650Y010398D01*
X022727Y010321D01*
X022727Y009937D02*
X022420Y009937D01*
X022727Y009937D02*
X022880Y009784D01*
X022727Y009630D01*
X022420Y009630D01*
X022573Y009477D02*
X022880Y009477D01*
X022650Y009477D02*
X022650Y009170D01*
X022573Y009170D02*
X022420Y009323D01*
X022573Y009477D01*
X022573Y009170D02*
X022880Y009170D01*
X022880Y015002D02*
X022420Y015002D01*
X022420Y015232D01*
X022496Y015309D01*
X022650Y015309D01*
X022727Y015232D01*
X022727Y015002D01*
X022420Y015462D02*
X022420Y015769D01*
X022420Y015922D02*
X022880Y015922D01*
X022650Y015922D02*
X022650Y016229D01*
X022420Y016229D02*
X022880Y016229D01*
X022880Y015615D02*
X022420Y015615D01*
D14*
X019786Y012875D02*
X019635Y012725D01*
X019786Y012875D02*
X019786Y012425D01*
X019936Y012425D02*
X019635Y012425D01*
X019400Y012500D02*
X019400Y012875D01*
X019325Y012875D02*
X019475Y012875D01*
X019400Y012500D02*
X019325Y012425D01*
X019250Y012425D01*
X019175Y012500D01*
X009515Y014950D02*
X009440Y014875D01*
X009290Y014875D01*
X009215Y014950D01*
X009215Y015250D01*
X009290Y015325D01*
X009440Y015325D01*
X009515Y015250D01*
X009515Y015100D02*
X009365Y015100D01*
X009515Y015100D02*
X009515Y014950D01*
X009054Y014875D02*
X008754Y014875D01*
X008754Y015325D01*
X009054Y015325D01*
X008904Y015100D02*
X008754Y015100D01*
X008594Y014875D02*
X008369Y015100D01*
X008294Y015025D02*
X008594Y015325D01*
X008294Y015325D02*
X008294Y014875D01*
X008134Y014950D02*
X008059Y014875D01*
X007908Y014875D01*
X007833Y014950D01*
X008134Y015250D01*
X008134Y014950D01*
X008134Y015250D02*
X008059Y015325D01*
X007908Y015325D01*
X007833Y015250D01*
X007833Y014950D01*
X007673Y015250D02*
X007373Y014950D01*
X007373Y014875D01*
X007213Y014875D02*
X006913Y014875D01*
X007213Y015175D01*
X007213Y015250D01*
X007138Y015325D01*
X006988Y015325D01*
X006913Y015250D01*
X006602Y015325D02*
X006602Y014875D01*
X006452Y014875D02*
X006752Y014875D01*
X006452Y015175D02*
X006602Y015325D01*
X006292Y015175D02*
X006292Y014875D01*
X006292Y015100D02*
X005992Y015100D01*
X005992Y015175D02*
X006142Y015325D01*
X006292Y015175D01*
X005992Y015175D02*
X005992Y014875D01*
X005832Y014875D02*
X005832Y015325D01*
X005682Y015175D01*
X005531Y015325D01*
X005531Y014875D01*
X005371Y014875D02*
X005371Y015325D01*
X005221Y015175D01*
X005071Y015325D01*
X005071Y014875D01*
X007373Y015325D02*
X007673Y015325D01*
X007673Y015250D01*
X011075Y002737D02*
X014225Y002737D01*
X013831Y001163D02*
X011469Y001163D01*
D15*
X009700Y019480D02*
X005600Y019480D01*
D16*
X005900Y019645D03*
X006400Y019645D03*
X006900Y019645D03*
X007400Y019645D03*
X007900Y019645D03*
X008400Y019645D03*
X008900Y019645D03*
X009400Y019645D03*
X009400Y016655D03*
X008900Y016655D03*
X008400Y016655D03*
X007900Y016655D03*
X007400Y016655D03*
X006900Y016655D03*
X006400Y016655D03*
X005900Y016655D03*
D17*
X016650Y007150D03*
D18*
X016493Y006926D03*
X016493Y007376D03*
M02*
