G75*
%MOIN*%
%OFA0B0*%
%FSLAX24Y24*%
%IPPOS*%
%LPD*%
%AMOC8*
5,1,8,0,0,1.08239X$1,22.5*
%
%ADD10C,0.0060*%
%ADD11C,0.0080*%
%ADD12C,0.0010*%
%ADD13C,0.0040*%
D10*
X015090Y006170D02*
X017100Y006170D01*
X017100Y008030D02*
X015090Y008030D01*
X017142Y022916D02*
X017355Y023130D01*
X017249Y023130D01*
X017249Y023237D01*
X017355Y023237D01*
X017355Y023130D01*
X016924Y023237D02*
X016924Y023664D01*
X016497Y023237D01*
X016604Y023130D01*
X016818Y023130D01*
X016924Y023237D01*
X016497Y023237D02*
X016497Y023664D01*
X016604Y023771D01*
X016818Y023771D01*
X016924Y023664D01*
X016927Y024180D02*
X017034Y024180D01*
X017034Y024287D01*
X016927Y024287D01*
X016927Y024180D01*
X016709Y024180D02*
X016709Y024607D01*
X016496Y024821D01*
X016282Y024607D01*
X016282Y024180D01*
X016282Y024500D02*
X016709Y024500D01*
X016280Y025230D02*
X016280Y025550D01*
X016173Y025657D01*
X015853Y025657D01*
X015853Y025230D01*
X015635Y025230D02*
X015315Y025230D01*
X015208Y025337D01*
X015315Y025444D01*
X015635Y025444D01*
X015635Y025550D02*
X015635Y025230D01*
X015635Y025550D02*
X015528Y025657D01*
X015315Y025657D01*
X014991Y025871D02*
X014991Y025230D01*
X014670Y024927D02*
X014670Y024821D01*
X014670Y024607D02*
X014670Y024180D01*
X014564Y024180D02*
X014777Y024180D01*
X014993Y024287D02*
X014993Y024500D01*
X015100Y024607D01*
X015420Y024607D01*
X015420Y024821D02*
X015420Y024180D01*
X015100Y024180D01*
X014993Y024287D01*
X014670Y024607D02*
X014564Y024607D01*
X014346Y024607D02*
X014133Y024180D01*
X013919Y024607D01*
X013702Y024500D02*
X013702Y024180D01*
X013381Y024180D01*
X013275Y024287D01*
X013381Y024394D01*
X013702Y024394D01*
X013702Y024500D02*
X013595Y024607D01*
X013381Y024607D01*
X013057Y024714D02*
X013057Y024287D01*
X012950Y024180D01*
X012630Y024180D01*
X012630Y024821D01*
X012950Y024821D01*
X013057Y024714D01*
X013381Y025230D02*
X013275Y025337D01*
X013381Y025444D01*
X013702Y025444D01*
X013702Y025550D02*
X013702Y025230D01*
X013381Y025230D01*
X013702Y025550D02*
X013595Y025657D01*
X013381Y025657D01*
X013057Y025550D02*
X012950Y025444D01*
X012630Y025444D01*
X012630Y025230D02*
X012630Y025871D01*
X012950Y025871D01*
X013057Y025764D01*
X013057Y025550D01*
X013919Y025550D02*
X013919Y025337D01*
X014026Y025230D01*
X014346Y025230D01*
X014564Y025230D02*
X014564Y025871D01*
X014777Y025657D01*
X014991Y025871D01*
X014346Y025657D02*
X014026Y025657D01*
X013919Y025550D01*
X013057Y023771D02*
X012844Y023771D01*
X012950Y023771D02*
X012950Y023237D01*
X012844Y023130D01*
X012737Y023130D01*
X012630Y023237D01*
X013275Y023237D02*
X013275Y023557D01*
X013275Y023237D02*
X013381Y023130D01*
X013702Y023130D01*
X013702Y023557D01*
X013919Y023557D02*
X014239Y023557D01*
X014346Y023450D01*
X014346Y023130D01*
X014564Y023237D02*
X014564Y023450D01*
X014670Y023557D01*
X014884Y023557D01*
X014991Y023450D01*
X014991Y023344D01*
X014564Y023344D01*
X014564Y023237D02*
X014670Y023130D01*
X014884Y023130D01*
X013919Y023130D02*
X013919Y023557D01*
X015853Y023664D02*
X015960Y023771D01*
X016173Y023771D01*
X016280Y023664D01*
X016280Y023557D01*
X016173Y023450D01*
X016280Y023344D01*
X016280Y023237D01*
X016173Y023130D01*
X015960Y023130D01*
X015853Y023237D01*
X016066Y023450D02*
X016173Y023450D01*
X017894Y024180D02*
X017894Y024821D01*
X018107Y024607D01*
X018321Y024821D01*
X018321Y024180D01*
X018538Y024287D02*
X018538Y024500D01*
X018645Y024607D01*
X018859Y024607D01*
X018965Y024500D01*
X018965Y024394D01*
X018538Y024394D01*
X018538Y024287D02*
X018645Y024180D01*
X018859Y024180D01*
X019183Y024180D02*
X019396Y024180D01*
X019290Y024180D02*
X019290Y024821D01*
X019183Y024821D01*
X019613Y024821D02*
X019719Y024821D01*
X019719Y024180D01*
X019613Y024180D02*
X019826Y024180D01*
X020042Y024180D02*
X020256Y024180D01*
X020149Y024180D02*
X020149Y024607D01*
X020042Y024607D01*
X020149Y024821D02*
X020149Y024927D01*
X020472Y024500D02*
X020579Y024607D01*
X020899Y024607D01*
X020792Y024394D02*
X020579Y024394D01*
X020472Y024500D01*
X020472Y024180D02*
X020792Y024180D01*
X020899Y024287D01*
X020792Y024394D01*
X020470Y023771D02*
X020150Y023450D01*
X020577Y023450D01*
X020470Y023130D02*
X020470Y023771D01*
X019719Y023771D02*
X019719Y023130D01*
X019932Y023130D02*
X019505Y023130D01*
X019288Y023237D02*
X019181Y023130D01*
X018967Y023130D01*
X018861Y023237D01*
X019288Y023664D01*
X019288Y023237D01*
X019505Y023557D02*
X019719Y023771D01*
X019288Y023664D02*
X019181Y023771D01*
X018967Y023771D01*
X018861Y023664D01*
X018861Y023237D01*
X018643Y023130D02*
X018216Y023130D01*
X018643Y023557D01*
X018643Y023664D01*
X018536Y023771D01*
X018323Y023771D01*
X018216Y023664D01*
D11*
X015353Y007810D02*
X015355Y007825D01*
X015361Y007838D01*
X015370Y007850D01*
X015381Y007859D01*
X015395Y007865D01*
X015410Y007867D01*
X015425Y007865D01*
X015438Y007859D01*
X015450Y007850D01*
X015459Y007839D01*
X015465Y007825D01*
X015467Y007810D01*
X015465Y007795D01*
X015459Y007782D01*
X015450Y007770D01*
X015439Y007761D01*
X015425Y007755D01*
X015410Y007753D01*
X015395Y007755D01*
X015382Y007761D01*
X015370Y007770D01*
X015361Y007781D01*
X015355Y007795D01*
X015353Y007810D01*
X015380Y004399D02*
X015734Y004399D01*
X015104Y003415D02*
X015104Y002588D01*
X017466Y004399D02*
X017820Y004399D01*
X018096Y003415D02*
X018096Y002588D01*
D12*
X016620Y002147D02*
X016620Y002047D01*
X016570Y002000D02*
X016595Y001975D01*
X016595Y001900D01*
X016445Y001900D01*
X016445Y001975D01*
X016470Y002000D01*
X016495Y002000D01*
X016520Y001975D01*
X016520Y001900D01*
X016545Y001852D02*
X016570Y001852D01*
X016595Y001827D01*
X016595Y001777D01*
X016570Y001752D01*
X016570Y001705D02*
X016445Y001705D01*
X016470Y001752D02*
X016495Y001752D01*
X016520Y001777D01*
X016520Y001827D01*
X016545Y001852D01*
X016470Y001852D02*
X016445Y001827D01*
X016445Y001777D01*
X016470Y001752D01*
X016570Y001705D02*
X016595Y001680D01*
X016595Y001630D01*
X016570Y001605D01*
X016445Y001605D01*
X016095Y001630D02*
X016095Y001655D01*
X016070Y001680D01*
X015945Y001680D01*
X015945Y001655D02*
X015945Y001705D01*
X015945Y001752D02*
X015945Y001827D01*
X015970Y001852D01*
X016020Y001852D01*
X016045Y001827D01*
X016045Y001752D01*
X016095Y001752D02*
X015945Y001752D01*
X015995Y001900D02*
X015945Y001950D01*
X016095Y001950D01*
X016095Y001900D02*
X016095Y002000D01*
X016445Y002194D02*
X016495Y002244D01*
X016445Y002294D01*
X016595Y002294D01*
X016595Y002342D02*
X016595Y002392D01*
X016595Y002367D02*
X016445Y002367D01*
X016445Y002342D02*
X016445Y002392D01*
X016445Y002440D02*
X016595Y002540D01*
X016445Y002540D01*
X016445Y002587D02*
X016445Y002637D01*
X016445Y002612D02*
X016595Y002612D01*
X016595Y002587D02*
X016595Y002637D01*
X016595Y002685D02*
X016595Y002760D01*
X016570Y002785D01*
X016545Y002785D01*
X016520Y002760D01*
X016520Y002685D01*
X016595Y002685D02*
X016445Y002685D01*
X016445Y002760D01*
X016470Y002785D01*
X016495Y002785D01*
X016520Y002760D01*
X016520Y002833D02*
X016520Y002933D01*
X016545Y002980D02*
X016545Y003055D01*
X016520Y003080D01*
X016470Y003080D01*
X016445Y003055D01*
X016445Y002980D01*
X016595Y002980D01*
X016570Y003127D02*
X016595Y003152D01*
X016595Y003202D01*
X016570Y003227D01*
X016470Y003227D01*
X016445Y003202D01*
X016445Y003152D01*
X016470Y003127D01*
X016570Y003127D01*
X016595Y003275D02*
X016545Y003325D01*
X016595Y003375D01*
X016445Y003375D01*
X016445Y003422D02*
X016595Y003422D01*
X016595Y003522D01*
X016595Y003569D02*
X016445Y003569D01*
X016445Y003644D01*
X016470Y003669D01*
X016520Y003669D01*
X016545Y003644D01*
X016545Y003569D01*
X016545Y003619D02*
X016595Y003669D01*
X016445Y003522D02*
X016445Y003422D01*
X016520Y003422D02*
X016520Y003472D01*
X016445Y003275D02*
X016595Y003275D01*
X016595Y002440D02*
X016445Y002440D01*
X016445Y002194D02*
X016595Y002194D01*
X016570Y002000D02*
X016545Y002000D01*
X016520Y001975D01*
X016095Y001630D02*
X016070Y001605D01*
X015555Y005739D02*
X015555Y005839D01*
X015555Y005789D02*
X015705Y005789D01*
X015705Y005886D02*
X015705Y005936D01*
X015705Y005911D02*
X015605Y005911D01*
X015605Y005886D01*
X015555Y005911D02*
X015530Y005911D01*
X015605Y005984D02*
X015605Y006059D01*
X015630Y006084D01*
X015705Y006084D01*
X015680Y006132D02*
X015705Y006157D01*
X015705Y006232D01*
X015730Y006232D02*
X015755Y006207D01*
X015755Y006182D01*
X015730Y006232D02*
X015605Y006232D01*
X015605Y006279D02*
X015580Y006279D01*
X015555Y006304D01*
X015555Y006354D01*
X015580Y006379D01*
X015605Y006379D01*
X015630Y006354D01*
X015630Y006304D01*
X015605Y006279D01*
X015630Y006304D02*
X015655Y006279D01*
X015680Y006279D01*
X015705Y006304D01*
X015705Y006354D01*
X015680Y006379D01*
X015655Y006379D01*
X015630Y006354D01*
X015630Y006426D02*
X015605Y006476D01*
X015605Y006501D01*
X015630Y006526D01*
X015680Y006526D01*
X015705Y006501D01*
X015705Y006451D01*
X015680Y006426D01*
X015630Y006426D02*
X015555Y006426D01*
X015555Y006526D01*
X015630Y006574D02*
X015630Y006674D01*
X015580Y006721D02*
X015555Y006746D01*
X015555Y006796D01*
X015580Y006821D01*
X015605Y006821D01*
X015705Y006721D01*
X015705Y006821D01*
X015680Y006868D02*
X015580Y006968D01*
X015680Y006968D01*
X015705Y006943D01*
X015705Y006893D01*
X015680Y006868D01*
X015580Y006868D01*
X015555Y006893D01*
X015555Y006943D01*
X015580Y006968D01*
X015630Y007016D02*
X015630Y007116D01*
X015605Y007163D02*
X015630Y007188D01*
X015630Y007238D01*
X015655Y007263D01*
X015680Y007263D01*
X015705Y007238D01*
X015705Y007188D01*
X015680Y007163D01*
X015605Y007163D02*
X015580Y007163D01*
X015555Y007188D01*
X015555Y007238D01*
X015580Y007263D01*
X015555Y007310D02*
X015605Y007360D01*
X015555Y007410D01*
X015705Y007410D01*
X015705Y007508D02*
X015555Y007508D01*
X015555Y007458D02*
X015555Y007558D01*
X015555Y007310D02*
X015705Y007310D01*
X015805Y007310D02*
X015930Y007310D01*
X015955Y007335D01*
X015955Y007385D01*
X015930Y007410D01*
X015805Y007410D01*
X015855Y007458D02*
X015805Y007508D01*
X015955Y007508D01*
X015955Y007458D02*
X015955Y007558D01*
X015680Y006132D02*
X015605Y006132D01*
X015605Y005984D02*
X015705Y005984D01*
D13*
X010899Y006620D02*
X010899Y007080D01*
X011129Y007080D01*
X011206Y007004D01*
X011206Y006850D01*
X011129Y006773D01*
X010899Y006773D01*
X011053Y006773D02*
X011206Y006620D01*
X011360Y006697D02*
X011436Y006620D01*
X011590Y006620D01*
X011667Y006697D01*
X011667Y006773D01*
X011590Y006850D01*
X011513Y006850D01*
X011590Y006850D02*
X011667Y006927D01*
X011667Y007004D01*
X011590Y007080D01*
X011436Y007080D01*
X011360Y007004D01*
X012399Y006177D02*
X012553Y006330D01*
X012553Y005870D01*
X012706Y005870D02*
X012399Y005870D01*
X012860Y005870D02*
X012860Y006330D01*
X012936Y006100D02*
X013167Y005870D01*
X012860Y006023D02*
X013167Y006330D01*
X014199Y005754D02*
X014199Y005447D01*
X014276Y005370D01*
X014429Y005370D01*
X014506Y005447D01*
X014660Y005370D02*
X014967Y005370D01*
X014813Y005370D02*
X014813Y005830D01*
X014660Y005677D01*
X014506Y005754D02*
X014429Y005830D01*
X014276Y005830D01*
X014199Y005754D01*
X015048Y004927D02*
X015202Y005080D01*
X015202Y004620D01*
X015355Y004620D02*
X015048Y004620D01*
X015509Y004620D02*
X015509Y004697D01*
X015585Y004697D01*
X015585Y004620D01*
X015509Y004620D01*
X015739Y004697D02*
X016046Y005004D01*
X016046Y004697D01*
X015969Y004620D01*
X015816Y004620D01*
X015739Y004697D01*
X015739Y005004D01*
X015816Y005080D01*
X015969Y005080D01*
X016046Y005004D01*
X016199Y004927D02*
X016199Y004697D01*
X016276Y004620D01*
X016506Y004620D01*
X016506Y004927D01*
X016660Y004850D02*
X016813Y004850D01*
X016660Y004620D02*
X016660Y005080D01*
X016967Y005080D01*
X014580Y008199D02*
X014273Y008506D01*
X014196Y008506D01*
X014120Y008429D01*
X014120Y008276D01*
X014196Y008199D01*
X014580Y008199D02*
X014580Y008506D01*
X014350Y008660D02*
X014120Y008890D01*
X014580Y008890D01*
X014350Y008967D02*
X014350Y008660D01*
X013830Y009949D02*
X013370Y009949D01*
X013370Y010179D01*
X013446Y010256D01*
X013600Y010256D01*
X013677Y010179D01*
X013677Y009949D01*
X013677Y010103D02*
X013830Y010256D01*
X013830Y010410D02*
X013523Y010717D01*
X013446Y010717D01*
X013370Y010640D01*
X013370Y010486D01*
X013446Y010410D01*
X013830Y010410D02*
X013830Y010717D01*
X015370Y009927D02*
X015523Y010080D01*
X015523Y009620D01*
X015370Y009620D02*
X015677Y009620D01*
X015830Y009697D02*
X015907Y009620D01*
X016061Y009620D01*
X016137Y009697D01*
X016137Y010004D01*
X015830Y009697D01*
X015830Y010004D01*
X015907Y010080D01*
X016061Y010080D01*
X016137Y010004D01*
X016291Y010080D02*
X016291Y009620D01*
X016291Y009773D02*
X016598Y010080D01*
X016368Y009850D02*
X016598Y009620D01*
X017120Y009330D02*
X017120Y008870D01*
X017120Y009023D02*
X017350Y009023D01*
X017427Y009100D01*
X017427Y009254D01*
X017350Y009330D01*
X017120Y009330D01*
X017273Y009023D02*
X017427Y008870D01*
X017580Y008870D02*
X017887Y008870D01*
X017734Y008870D02*
X017734Y009330D01*
X017580Y009177D01*
X012137Y009370D02*
X011830Y009370D01*
X011984Y009370D02*
X011984Y009830D01*
X011830Y009677D01*
X011677Y009830D02*
X011370Y009830D01*
X011523Y009830D02*
X011523Y009370D01*
X026674Y014365D02*
X026828Y014518D01*
X026674Y014672D01*
X027135Y014672D01*
X027135Y014825D02*
X027135Y015132D01*
X026904Y015286D02*
X026904Y015593D01*
X026904Y015746D02*
X026904Y015899D01*
X026674Y015746D02*
X027135Y015746D01*
X027135Y016053D01*
X027135Y016206D02*
X026674Y016206D01*
X026674Y016513D01*
X026828Y016667D02*
X026674Y016820D01*
X026828Y016974D01*
X027135Y016974D01*
X027135Y017127D02*
X027135Y017357D01*
X027058Y017434D01*
X026981Y017434D01*
X026904Y017357D01*
X026904Y017127D01*
X026904Y016974D02*
X026904Y016667D01*
X026828Y016667D02*
X027135Y016667D01*
X026904Y016360D02*
X026904Y016206D01*
X026674Y016053D02*
X026674Y015746D01*
X026674Y014825D02*
X027135Y014825D01*
X027135Y014365D02*
X026674Y014365D01*
X028865Y015746D02*
X029325Y015746D01*
X029325Y016053D01*
X029325Y016206D02*
X029325Y016513D01*
X029325Y016667D02*
X029325Y016897D01*
X029249Y016974D01*
X028942Y016974D01*
X028865Y016897D01*
X028865Y016667D01*
X029325Y016667D01*
X029095Y016360D02*
X029095Y016206D01*
X028865Y016206D02*
X028865Y016513D01*
X028865Y016206D02*
X029325Y016206D01*
X029325Y017127D02*
X029019Y017434D01*
X028942Y017434D01*
X028865Y017357D01*
X028865Y017204D01*
X028942Y017127D01*
X029325Y017127D02*
X029325Y017434D01*
X027135Y017127D02*
X026674Y017127D01*
X026674Y017357D01*
X026751Y017434D01*
X026828Y017434D01*
X026904Y017357D01*
M02*
