G75*
%MOIN*%
%OFA0B0*%
%FSLAX24Y24*%
%IPPOS*%
%LPD*%
%AMOC8*
5,1,8,0,0,1.08239X$1,22.5*
%
%ADD10C,0.0030*%
%ADD11C,0.0050*%
D10*
X010136Y013245D02*
X010330Y013245D01*
X010233Y013245D02*
X010233Y013535D01*
X010330Y013438D01*
X010431Y013535D02*
X010528Y013535D01*
X010479Y013535D02*
X010479Y013293D01*
X010528Y013245D01*
X010576Y013245D01*
X010624Y013293D01*
X011120Y015547D02*
X011314Y015547D01*
X011415Y015643D02*
X011415Y015740D01*
X011512Y015740D01*
X011608Y015643D02*
X011560Y015595D01*
X011463Y015595D01*
X011415Y015643D01*
X011608Y015643D02*
X011608Y015837D01*
X011560Y015885D01*
X011463Y015885D01*
X011415Y015837D01*
X011709Y015837D02*
X011709Y015740D01*
X011758Y015692D01*
X011903Y015692D01*
X011806Y015692D02*
X011709Y015595D01*
X011709Y015837D02*
X011758Y015885D01*
X011903Y015885D01*
X011903Y015595D01*
X012004Y015740D02*
X012052Y015692D01*
X012198Y015692D01*
X012198Y015595D02*
X012198Y015885D01*
X012052Y015885D01*
X012004Y015837D01*
X012004Y015740D01*
X012299Y015547D02*
X012492Y015547D01*
X012592Y015595D02*
X012689Y015595D01*
X012640Y015595D02*
X012640Y015885D01*
X012592Y015885D02*
X012689Y015885D01*
X012790Y015837D02*
X012790Y015740D01*
X012838Y015692D01*
X012983Y015692D01*
X012983Y015595D02*
X012983Y015885D01*
X012838Y015885D01*
X012790Y015837D01*
X013084Y015837D02*
X013133Y015885D01*
X013230Y015885D01*
X013278Y015837D01*
X013278Y015788D01*
X013230Y015740D01*
X013133Y015740D01*
X013084Y015692D01*
X013084Y015643D01*
X013133Y015595D01*
X013230Y015595D01*
X013278Y015643D01*
X013379Y015547D02*
X013573Y015547D01*
X013674Y015595D02*
X013771Y015692D01*
X013722Y015692D02*
X013867Y015692D01*
X013867Y015595D02*
X013867Y015885D01*
X013722Y015885D01*
X013674Y015837D01*
X013674Y015740D01*
X013722Y015692D01*
X013968Y015692D02*
X013968Y015885D01*
X013968Y015692D02*
X014065Y015595D01*
X014162Y015692D01*
X014162Y015885D01*
X014263Y015788D02*
X014263Y015595D01*
X014263Y015740D02*
X014457Y015740D01*
X014457Y015788D02*
X014457Y015595D01*
X014457Y015788D02*
X014360Y015885D01*
X014263Y015788D01*
X011019Y015740D02*
X011019Y015643D01*
X010971Y015595D01*
X010874Y015595D01*
X010825Y015643D01*
X010825Y015692D01*
X010874Y015740D01*
X011019Y015740D01*
X010922Y015837D01*
X010825Y015885D01*
X010724Y015885D02*
X010724Y015595D01*
X010531Y015595D02*
X010531Y015885D01*
X010430Y015837D02*
X010430Y015788D01*
X010381Y015740D01*
X010285Y015740D01*
X010236Y015692D01*
X010236Y015643D01*
X010285Y015595D01*
X010381Y015595D01*
X010430Y015643D01*
X010531Y015595D02*
X010724Y015885D01*
X010430Y015837D02*
X010381Y015885D01*
X010285Y015885D01*
X010236Y015837D01*
D11*
X011906Y005213D02*
X006394Y005213D01*
X005213Y009150D02*
X005215Y009275D01*
X005221Y009400D01*
X005231Y009524D01*
X005245Y009648D01*
X005262Y009772D01*
X005284Y009895D01*
X005310Y010017D01*
X005339Y010139D01*
X005372Y010259D01*
X005410Y010378D01*
X005450Y010497D01*
X005495Y010613D01*
X005543Y010728D01*
X005595Y010842D01*
X005651Y010954D01*
X005710Y011064D01*
X005772Y011172D01*
X005838Y011279D01*
X005907Y011383D01*
X005980Y011484D01*
X006055Y011584D01*
X006134Y011681D01*
X006216Y011775D01*
X006301Y011867D01*
X006388Y011956D01*
X006479Y012042D01*
X006572Y012125D01*
X006668Y012206D01*
X006766Y012283D01*
X006866Y012357D01*
X006969Y012428D01*
X007074Y012495D01*
X007182Y012560D01*
X007291Y012620D01*
X007402Y012678D01*
X007515Y012731D01*
X007629Y012781D01*
X007745Y012828D01*
X007862Y012870D01*
X007981Y012909D01*
X008101Y012945D01*
X008222Y012976D01*
X008344Y013004D01*
X008466Y013027D01*
X008590Y013047D01*
X008714Y013063D01*
X008838Y013075D01*
X008963Y013083D01*
X009088Y013087D01*
X009212Y013087D01*
X009337Y013083D01*
X009462Y013075D01*
X009586Y013063D01*
X009710Y013047D01*
X009834Y013027D01*
X009956Y013004D01*
X010078Y012976D01*
X010199Y012945D01*
X010319Y012909D01*
X010438Y012870D01*
X010555Y012828D01*
X010671Y012781D01*
X010785Y012731D01*
X010898Y012678D01*
X011009Y012620D01*
X011119Y012560D01*
X011226Y012495D01*
X011331Y012428D01*
X011434Y012357D01*
X011534Y012283D01*
X011632Y012206D01*
X011728Y012125D01*
X011821Y012042D01*
X011912Y011956D01*
X011999Y011867D01*
X012084Y011775D01*
X012166Y011681D01*
X012245Y011584D01*
X012320Y011484D01*
X012393Y011383D01*
X012462Y011279D01*
X012528Y011172D01*
X012590Y011064D01*
X012649Y010954D01*
X012705Y010842D01*
X012757Y010728D01*
X012805Y010613D01*
X012850Y010497D01*
X012890Y010378D01*
X012928Y010259D01*
X012961Y010139D01*
X012990Y010017D01*
X013016Y009895D01*
X013038Y009772D01*
X013055Y009648D01*
X013069Y009524D01*
X013079Y009400D01*
X013085Y009275D01*
X013087Y009150D01*
X013085Y009025D01*
X013079Y008900D01*
X013069Y008776D01*
X013055Y008652D01*
X013038Y008528D01*
X013016Y008405D01*
X012990Y008283D01*
X012961Y008161D01*
X012928Y008041D01*
X012890Y007922D01*
X012850Y007803D01*
X012805Y007687D01*
X012757Y007572D01*
X012705Y007458D01*
X012649Y007346D01*
X012590Y007236D01*
X012528Y007128D01*
X012462Y007021D01*
X012393Y006917D01*
X012320Y006816D01*
X012245Y006716D01*
X012166Y006619D01*
X012084Y006525D01*
X011999Y006433D01*
X011912Y006344D01*
X011821Y006258D01*
X011728Y006175D01*
X011632Y006094D01*
X011534Y006017D01*
X011434Y005943D01*
X011331Y005872D01*
X011226Y005805D01*
X011118Y005740D01*
X011009Y005680D01*
X010898Y005622D01*
X010785Y005569D01*
X010671Y005519D01*
X010555Y005472D01*
X010438Y005430D01*
X010319Y005391D01*
X010199Y005355D01*
X010078Y005324D01*
X009956Y005296D01*
X009834Y005273D01*
X009710Y005253D01*
X009586Y005237D01*
X009462Y005225D01*
X009337Y005217D01*
X009212Y005213D01*
X009088Y005213D01*
X008963Y005217D01*
X008838Y005225D01*
X008714Y005237D01*
X008590Y005253D01*
X008466Y005273D01*
X008344Y005296D01*
X008222Y005324D01*
X008101Y005355D01*
X007981Y005391D01*
X007862Y005430D01*
X007745Y005472D01*
X007629Y005519D01*
X007515Y005569D01*
X007402Y005622D01*
X007291Y005680D01*
X007181Y005740D01*
X007074Y005805D01*
X006969Y005872D01*
X006866Y005943D01*
X006766Y006017D01*
X006668Y006094D01*
X006572Y006175D01*
X006479Y006258D01*
X006388Y006344D01*
X006301Y006433D01*
X006216Y006525D01*
X006134Y006619D01*
X006055Y006716D01*
X005980Y006816D01*
X005907Y006917D01*
X005838Y007021D01*
X005772Y007128D01*
X005710Y007236D01*
X005651Y007346D01*
X005595Y007458D01*
X005543Y007572D01*
X005495Y007687D01*
X005450Y007803D01*
X005410Y007922D01*
X005372Y008041D01*
X005339Y008161D01*
X005310Y008283D01*
X005284Y008405D01*
X005262Y008528D01*
X005245Y008652D01*
X005231Y008776D01*
X005221Y008900D01*
X005215Y009025D01*
X005213Y009150D01*
X006394Y013087D02*
X011906Y013087D01*
M02*
