G75*
%MOIN*%
%OFA0B0*%
%FSLAX24Y24*%
%IPPOS*%
%LPD*%
%AMOC8*
5,1,8,0,0,1.08239X$1,22.5*
%
%ADD10C,0.0050*%
%ADD11C,0.0040*%
D10*
X017738Y002919D02*
X017738Y003588D01*
X017738Y004100D02*
X017738Y005281D01*
X022462Y005281D01*
X022462Y004100D01*
X022493Y004098D01*
X022523Y004093D01*
X022553Y004085D01*
X022582Y004073D01*
X022609Y004058D01*
X022634Y004040D01*
X022657Y004019D01*
X022678Y003996D01*
X022696Y003971D01*
X022711Y003944D01*
X022723Y003915D01*
X022731Y003885D01*
X022736Y003855D01*
X022738Y003824D01*
X022736Y003796D01*
X022731Y003768D01*
X022723Y003740D01*
X022711Y003714D01*
X022696Y003690D01*
X022679Y003668D01*
X022658Y003647D01*
X022636Y003630D01*
X022612Y003615D01*
X022586Y003603D01*
X022558Y003595D01*
X022530Y003590D01*
X022502Y003588D01*
X022462Y003588D01*
X022462Y002919D01*
X010075Y014850D02*
X010000Y014775D01*
X009925Y014775D01*
X009850Y014850D01*
X009850Y015225D01*
X009925Y015225D02*
X009775Y015225D01*
X009615Y015075D02*
X009464Y015225D01*
X009464Y014775D01*
X009314Y014775D02*
X009615Y014775D01*
D11*
X009620Y012230D02*
X009620Y011923D01*
X009466Y011770D01*
X009313Y011923D01*
X009313Y012230D01*
X009159Y012230D02*
X008929Y012230D01*
X008852Y012154D01*
X008852Y012000D01*
X008929Y011923D01*
X009159Y011923D01*
X009159Y011770D02*
X009159Y012230D01*
X009006Y011923D02*
X008852Y011770D01*
X008699Y011693D02*
X008392Y011693D01*
X008238Y011847D02*
X008162Y011770D01*
X008008Y011770D01*
X007932Y011847D01*
X007932Y011923D01*
X008008Y012000D01*
X008162Y012000D01*
X008238Y012077D01*
X008238Y012154D01*
X008162Y012230D01*
X008008Y012230D01*
X007932Y012154D01*
X007778Y012230D02*
X007548Y012230D01*
X007471Y012154D01*
X007471Y012000D01*
X007548Y011923D01*
X007778Y011923D01*
X007778Y011770D02*
X007778Y012230D01*
X007318Y012230D02*
X007164Y012230D01*
X007241Y012230D02*
X007241Y011770D01*
X007318Y011770D02*
X007164Y011770D01*
X007011Y011693D02*
X006704Y011693D01*
X006550Y011770D02*
X006550Y012230D01*
X006320Y012230D01*
X006243Y012154D01*
X006243Y012000D01*
X006320Y011923D01*
X006550Y011923D01*
X006090Y011923D02*
X005860Y011923D01*
X005783Y012000D01*
X005783Y012154D01*
X005860Y012230D01*
X006090Y012230D01*
X006090Y011770D01*
X005936Y011923D02*
X005783Y011770D01*
X005630Y011847D02*
X005553Y011770D01*
X005399Y011770D01*
X005323Y011847D01*
X005323Y012000D01*
X005476Y012000D01*
X005630Y012154D02*
X005630Y011847D01*
X005630Y012154D02*
X005553Y012230D01*
X005399Y012230D01*
X005323Y012154D01*
X004709Y012000D02*
X004709Y011847D01*
X004632Y011770D01*
X004479Y011770D01*
X004402Y011847D01*
X004402Y011923D01*
X004479Y012000D01*
X004709Y012000D01*
X004555Y012154D01*
X004402Y012230D01*
X004248Y012230D02*
X003941Y011770D01*
X003941Y012230D01*
X003788Y012154D02*
X003788Y012077D01*
X003711Y012000D01*
X003558Y012000D01*
X003481Y011923D01*
X003481Y011847D01*
X003558Y011770D01*
X003711Y011770D01*
X003788Y011847D01*
X004248Y011770D02*
X004248Y012230D01*
X003788Y012154D02*
X003711Y012230D01*
X003558Y012230D01*
X003481Y012154D01*
X004862Y011693D02*
X005169Y011693D01*
X009773Y011770D02*
X009773Y012077D01*
X009927Y012230D01*
X010080Y012077D01*
X010080Y011770D01*
X010080Y012000D02*
X009773Y012000D01*
M02*
