G75*
%MOIN*%
%OFA0B0*%
%FSLAX24Y24*%
%IPPOS*%
%LPD*%
%AMOC8*
5,1,8,0,0,1.08239X$1,22.5*
%
%ADD10R,0.0870X0.0240*%
%ADD11R,0.0740X0.0740*%
%ADD12OC8,0.0740*%
%ADD13R,0.0630X0.0710*%
%ADD14R,0.0630X0.0709*%
%ADD15R,0.0630X0.0531*%
%ADD16R,0.0276X0.1260*%
%ADD17R,0.0394X0.0551*%
%ADD18R,0.0710X0.0630*%
%ADD19R,0.0472X0.0217*%
%ADD20C,0.0515*%
%ADD21C,0.0594*%
%ADD22C,0.0120*%
%ADD23C,0.0400*%
D10*
X007073Y013153D03*
X007073Y013653D03*
X007073Y014153D03*
X007073Y014653D03*
X009723Y014653D03*
X009723Y014153D03*
X009723Y013653D03*
X009723Y013153D03*
D11*
X012153Y016903D03*
D12*
X013153Y016903D03*
X014153Y016903D03*
X014153Y015903D03*
X013153Y015903D03*
X012153Y015903D03*
D13*
X008963Y015653D03*
X007843Y015653D03*
X012893Y010453D03*
X014013Y010453D03*
X005913Y007053D03*
X004793Y007053D03*
D14*
X004802Y008103D03*
X005904Y008103D03*
X008202Y007553D03*
X009304Y007553D03*
X008954Y012403D03*
X007852Y012403D03*
D15*
X010263Y011306D03*
X010263Y010499D03*
X011543Y010499D03*
X011543Y011306D03*
D16*
X010903Y010903D03*
D17*
X013453Y009486D03*
X013827Y008620D03*
X013079Y008620D03*
D18*
X015003Y008843D03*
X015003Y009963D03*
X009253Y009943D03*
X008203Y009943D03*
X007153Y009913D03*
X007153Y008793D03*
X008203Y011063D03*
X009253Y011063D03*
X005653Y013093D03*
X005653Y014213D03*
D19*
X005365Y009727D03*
X005365Y009353D03*
X005365Y008979D03*
X004341Y008979D03*
X004341Y009727D03*
D20*
X010529Y006009D03*
X011277Y006009D03*
D21*
X016218Y010903D03*
X005588Y011395D03*
X005588Y010411D03*
D22*
X004103Y007403D02*
X004103Y007103D01*
X004703Y007103D01*
X004793Y007053D01*
X004403Y007603D02*
X003703Y008303D01*
X003703Y009903D01*
X004903Y011103D01*
X004903Y013503D01*
X005603Y014203D01*
X005653Y014213D01*
X005703Y014203D01*
X007003Y014203D01*
X007073Y014153D01*
X007073Y014653D02*
X007103Y014703D01*
X007103Y014903D01*
X007803Y015603D01*
X007843Y015653D01*
X007903Y015703D01*
X009703Y017503D01*
X011503Y017503D01*
X011703Y017703D01*
X014103Y017703D01*
X014103Y016903D01*
X014153Y016903D01*
X013153Y016903D02*
X013103Y016903D01*
X013103Y017503D01*
X011803Y017503D01*
X011403Y017103D01*
X011403Y014203D01*
X009803Y014203D01*
X009723Y014153D01*
X009703Y014603D02*
X009723Y014653D01*
X009703Y014703D01*
X009703Y014903D01*
X009003Y015603D01*
X008963Y015653D01*
X009003Y014603D02*
X009003Y012403D01*
X008954Y012403D01*
X009203Y012203D01*
X012203Y012203D01*
X012203Y009503D01*
X013403Y009503D01*
X013453Y009486D01*
X014003Y008803D02*
X014003Y010403D01*
X014013Y010453D01*
X014503Y010903D02*
X014403Y011003D01*
X012903Y011003D01*
X012903Y010503D01*
X012893Y010453D01*
X012003Y010003D02*
X012003Y009003D01*
X013003Y008003D01*
X015503Y008003D01*
X015503Y009303D01*
X015303Y009503D01*
X014503Y009503D01*
X014503Y010903D01*
X014703Y010303D02*
X014703Y014403D01*
X013203Y015903D01*
X013153Y015903D01*
X012203Y015903D02*
X012153Y015903D01*
X012203Y015903D02*
X012203Y012203D01*
X011603Y013703D02*
X011603Y016403D01*
X012103Y016903D01*
X012153Y016903D01*
X009703Y014603D02*
X009003Y014603D01*
X009723Y013653D02*
X009803Y013703D01*
X011603Y013703D01*
X010503Y013303D02*
X010503Y013203D01*
X009803Y013203D01*
X009723Y013153D01*
X009003Y012403D02*
X009203Y012203D01*
X009203Y011103D01*
X009253Y011063D01*
X009203Y011103D02*
X008203Y011103D01*
X008203Y011063D01*
X007703Y010603D02*
X007803Y010503D01*
X008703Y010503D01*
X008703Y008803D01*
X007203Y008803D01*
X007153Y008793D01*
X007103Y008803D01*
X005903Y008803D01*
X005903Y009303D01*
X005403Y009303D01*
X005365Y009353D01*
X005365Y008979D02*
X005303Y008903D01*
X005303Y007703D01*
X005203Y007603D01*
X004403Y007603D01*
X004703Y008103D02*
X004802Y008103D01*
X004703Y008103D02*
X004703Y008603D01*
X004403Y008903D01*
X004341Y008979D01*
X004403Y009003D01*
X004903Y009503D01*
X004903Y009903D01*
X005503Y010503D01*
X005588Y010411D01*
X005603Y010503D01*
X005603Y011303D01*
X005588Y011395D01*
X005103Y010503D02*
X005103Y012503D01*
X005603Y013003D01*
X005653Y013093D01*
X007073Y013153D02*
X007103Y013103D01*
X007803Y012403D01*
X007852Y012403D01*
X007803Y012403D02*
X007703Y012303D01*
X007703Y010603D01*
X007203Y010003D02*
X008203Y010003D01*
X008203Y009943D01*
X008703Y010503D02*
X010203Y010503D01*
X010263Y010499D01*
X010303Y010403D01*
X011203Y009503D01*
X011203Y006103D01*
X011277Y006009D01*
X010529Y006009D02*
X010503Y006103D01*
X010503Y006403D01*
X009403Y007503D01*
X009304Y007553D01*
X009303Y007603D01*
X009303Y009903D01*
X009253Y009943D01*
X007203Y010003D02*
X007153Y009913D01*
X007103Y009903D01*
X007103Y009803D01*
X005403Y009803D01*
X005365Y009727D01*
X004703Y010103D02*
X004603Y010203D01*
X004703Y010103D02*
X004403Y009803D01*
X004341Y009727D01*
X004703Y010103D02*
X005103Y010503D01*
X005903Y008803D02*
X005903Y008103D01*
X005904Y008103D01*
X006003Y007503D02*
X006003Y007103D01*
X005913Y007053D01*
X006003Y007503D02*
X008103Y007503D01*
X008202Y007553D01*
X011603Y010403D02*
X011543Y010499D01*
X011603Y010403D02*
X012003Y010003D01*
X013079Y008620D02*
X013103Y008603D01*
X013503Y008203D01*
X015003Y008203D01*
X015003Y008843D01*
X014003Y008803D02*
X013903Y008703D01*
X013827Y008620D01*
X015003Y009963D02*
X015003Y010003D01*
X014703Y010303D01*
D23*
X010503Y013303D03*
X004603Y010203D03*
X004103Y007403D03*
M02*
